Coordinates
version=1
nRows=8
nColumns=40
inDegrees=yes

Units are S.I. units (second, meters, Newtons, ...)
Angles are in degrees.

endheader
time	pelvis_tilt	pelvis_list	pelvis_rotation	pelvis_tx	pelvis_ty	pelvis_tz	hip_flexion_r	hip_adduction_r	hip_rotation_r	knee_angle_r	knee_angle_r_beta	ankle_angle_r	subtalar_angle_r	mtp_angle_r	hip_flexion_l	hip_adduction_l	hip_rotation_l	knee_angle_l	knee_angle_l_beta	ankle_angle_l	subtalar_angle_l	mtp_angle_l	lumbar_extension	lumbar_bending	lumbar_rotation	arm_flex_r	arm_add_r	arm_rot_r	elbow_flex_r	pro_sup_r	wrist_flex_r	wrist_dev_r	arm_flex_l	arm_add_l	arm_rot_l	elbow_flex_l	pro_sup_l	wrist_flex_l	wrist_dev_l
      1.17000000	     -5.06424051	     -4.68940506	      4.63923797	      0.91750813	      0.93343239	      0.51772616	      8.74967567	      4.51363732	    -21.17326781	      8.13626268	      8.13626268	      7.11496477	      3.43784644	     -7.36379517	     36.62072282	    -11.20808337	      2.38515373	     52.87045972	     52.87045972	      9.24790729	    -17.13974251	     10.12532365	     -9.40242186	      5.98079769	      4.17089408	     23.86420361	    -16.72114569	     -5.51117943	     53.84465384	     44.56997710	      0.00000000	      0.00000000	      4.30338050	     -6.59373045	     -0.19159957	     31.55558058	     44.33890523	      0.00000000	      0.00000000
      1.18128571	     -5.15834733	     -4.72640413	      4.70605742	      0.91660676	      0.93309141	      0.51789090	      8.37775346	      4.62540550	    -21.05712747	      8.00344461	      8.00344461	      7.06645905	      3.19794683	     -8.18336566	     37.27270442	    -11.03720051	      2.13941932	     50.28938776	     50.28938776	      9.05516674	    -17.04284050	      9.44653299	     -9.47827650	      6.02596042	      4.38180617	     25.10735036	    -17.11626634	     -5.54896108	     56.77084052	     44.55081407	      0.00000000	      0.00000000	      3.39874819	     -6.26975043	     -0.45723185	     30.24507124	     44.49426937	      0.00000000	      0.00000000
      1.19257143	     -5.27706236	     -4.75153066	      4.79899607	      0.91575290	      0.93270850	      0.51795092	      8.06969365	      4.68884651	    -21.02635807	      7.98128314	      7.98128314	      7.34121551	      3.14719128	     -8.16951095	     37.78704272	    -10.75027742	      2.03575211	     47.50543854	     47.50543854	      9.08559956	    -16.85389189	      9.59879833	     -9.45412773	      6.09268318	      4.21685300	     27.05917698	    -17.04891148	     -5.70251760	     58.21084158	     44.53117046	      0.00000000	      0.00000000	      2.08876139	     -6.08143497	     -0.33194615	     29.25814235	     44.48122303	      0.00000000	      0.00000000
      1.20385714	     -5.36728702	     -4.75378107	      4.85259805	      0.91497179	      0.93237783	      0.51802690	      7.72093779	      4.73226504	    -20.98250593	      7.94566559	      7.94566559	      7.62393582	      3.17013313	     -8.14640791	     38.08570332	    -10.47567726	      1.85349760	     44.52650413	     44.52650413	      9.06272883	    -16.44338460	      9.81614928	     -9.47634318	      6.10828608	      4.22043909	     28.88596295	    -17.07481006	     -5.80201199	     59.63612482	     44.50543698	      0.00000000	      0.00000000	      0.93776728	     -5.91184522	     -0.20553125	     28.34087019	     44.46389228	      0.00000000	      0.00000000
      1.21514286	     -5.45669937	     -4.78658591	      4.91119750	      0.91432009	      0.93199886	      0.51800923	      7.34819005	      4.80832356	    -21.00588986	      7.86942015	      7.86942015	      7.91009021	      3.27910437	     -8.08586751	     38.25887453	    -10.19499063	      1.74692336	     41.46028815	     41.46028815	      9.03143640	    -15.88868120	     10.03231113	     -9.49584140	      6.17060506	      4.15887594	     30.62849272	    -17.06132098	     -5.86841519	     61.21260546	     44.47334932	      0.00000000	      0.00000000	     -0.16559328	     -5.73277405	     -0.04708601	     27.34157306	     44.44317820	      0.00000000	      0.00000000
      1.22642857	     -5.63179762	     -5.09349696	      4.96931282	      0.91371325	      0.93125187	      0.51799034	      7.14056704	      5.15634508	    -21.05867282	      7.88556901	      7.88556901	      8.15834956	      3.30106975	     -8.16924619	     38.61691718	    -10.16709000	      1.83691562	     38.59708302	     38.59708302	      9.13983453	    -15.02177370	     10.34980000	     -9.31346216	      6.55310603	      4.57012901	     32.18802031	    -17.52394083	     -6.05957068	     62.02764639	     44.46352540	      0.00000000	      0.00000000	     -1.21765503	     -5.51330236	      0.00748206	     26.83633290	     44.42302628	      0.00000000	      0.00000000
      1.23771429	     -5.60023487	     -4.91499908	      5.03591471	      0.91337495	      0.93120909	      0.51771318	      6.47409716	      5.03606393	    -21.16709494	      7.56556068	      7.56556068	      8.47348114	      3.74393083	     -7.95432195	     38.31798415	     -9.70556291	      1.55908358	     35.36115123	     35.36115123	      9.06288309	    -14.08936873	     10.63977345	     -9.50055612	      6.37853674	      4.06917163	     33.82582469	    -16.98383726	     -6.01385256	     64.32184612	     44.40415596	      0.00000000	      0.00000000	     -2.26073682	     -5.40036963	      0.28062853	     25.57208362	     44.38863964	      0.00000000	      0.00000000
      1.24900000	     -5.67149828	     -4.98891722	      5.08293508	      0.91314047	      0.93078639	      0.51745305	      5.98136004	      5.16191753	    -21.31512613	      7.34214105	      7.34214105	      8.79894694	      4.17806391	     -7.75531532	     38.24357775	     -9.50066386	      1.39999860	     32.43285305	     32.43285305	      9.08639287	    -12.91758588	     10.88219029	     -9.46516231	      6.48488098	      4.11585826	     35.14055954	    -17.00793959	     -6.10033934	     66.09449326	     44.36873213	      0.00000000	      0.00000000	     -3.19383998	     -5.26444467	      0.52130803	     24.71293608	     44.35798524	      0.00000000	      0.00000000
